# xmcd
#
# Track frame offsets: 
#        150
#        26822
#        41177
#        64168
#        85035
#        104848
#        131882
#        154710
#        173545
#        193728
#
# Disc length: 2850 seconds
#
# Revision: 0
# Processed by: cddbd v1.5.1PL0 Copyright (c) Steve Scherf et al.
# Submitted via: ExactAudioCopy v0.95a5
#
DISCID=8b0b200a
DTITLE=Minus Story - No Rest for Ghosts
DYEAR=1900
DGENRE=A Cappella
TTITLE0=I Was Hit
TTITLE1=Knocking on Your Head
TTITLE2=Ringing in the Dark
TTITLE3=Hold On
TTITLE4=Little Wet Head
TTITLE5=Waking Up
TTITLE6=There is a Light
TTITLE7=Will I Be Fighting?
TTITLE8=To the Ones You Haunted
TTITLE9=In Our Hands
EXTD=
EXTT0=
EXTT1=
EXTT2=
EXTT3=
EXTT4=
EXTT5=
EXTT6=
EXTT7=
EXTT8=
EXTT9=
PLAYORDER=
